<svg id="svg" version="1.1" xmlns="http://www.w3.org/2000/svg" style="display: block;" viewBox="0 0 500 500"><path d="M0 0 C10.46392248 -7.3677308 21.29582348 -13.51344435 32.8373909 -19.0308094 C52.66066325 -27.7416749 72.85659566 -34.30716878 93.8911438 -39.41011429 C130.13951408 -47.49533967 166.53307883 -51.5764195 203.63616943 -52.69622803 C215.33611924 -52.91211484 227.02964999 -52.96068637 238.73138428 -52.94036865 C241.63146019 -52.94540405 244.5315361 -52.95043945 247.5194931 -52.95562744 C287.8511543 -52.88555397 327.62050615 -50.43937846 367.29812622 -42.9110527 C391.37731782 -37.92084588 414.68296652 -31.51095265 437.46185303 -22.1786499 C449.27314208 -16.98845988 460.44823588 -11.1931033 471.35710716 -4.29904461 C477.51229192 0.0348698 483.16447427 4.49127966 488.73138428 9.55963135 C495.51870702 17.01460236 501.23106739 24.7834948 506.61468506 33.30230713 C515.79724856 49.21675155 522.88140145 65.80424524 528.90789509 83.14490318 C538.20502329 112.33789476 543.97195491 142.26765783 547.6360321 172.65701294 C550.65890093 201.58289419 551.2818475 230.49597054 551.23138428 259.55963135 C551.23641968 262.45970726 551.24145508 265.35978317 551.24664307 268.34774017 C551.1765696 308.67940137 548.73039408 348.44875322 541.20206833 388.12637329 C536.21186151 412.20556489 529.80196828 435.51121359 520.46966553 458.2901001 C515.27947551 470.10138915 509.48411892 481.27648295 502.59006023 492.18535423 C498.25614583 498.34053899 493.79973597 503.99272134 488.73138428 509.55963135 C481.27641326 516.34695409 473.50752082 522.05931446 464.9887085 527.44293213 C449.07426408 536.62549563 432.48677039 543.70964852 415.14611244 549.73614216 C385.95312087 559.03327036 356.0233578 564.80020198 325.63400269 568.46427917 C296.70812143 571.487148 267.79504509 572.11009457 238.73138428 572.05963135 C235.83130836 572.06466675 232.93123245 572.06970215 229.94327545 572.07489014 C189.61161425 572.00481667 149.8422624 569.55864115 110.16464233 562.0303154 C86.08545074 557.04010858 62.77980203 550.63021535 40.00091553 541.2979126 C28.18962647 536.10772258 17.01453267 530.31236599 6.10566139 523.4183073 C-0.04952337 519.0843929 -5.70170571 514.62798304 -11.26861572 509.55963135 C-18.05593847 502.10466033 -23.76829884 494.33576789 -29.1519165 485.81695557 C-38.33448001 469.90251115 -45.41863289 453.31501746 -51.44512653 435.97435951 C-60.74225474 406.78136794 -66.50918636 376.85160487 -70.17326355 346.46224976 C-73.19613238 317.5363685 -73.81907894 288.62329216 -73.76861572 259.55963135 C-73.77365112 256.65955544 -73.77868652 253.75947952 -73.78387451 250.77152252 C-73.71380104 210.43986132 -71.26762553 170.67050948 -63.73929977 130.9928894 C-58.74909295 106.91369781 -52.33919972 83.6080491 -43.00689697 60.8291626 C-37.81670695 49.01787354 -32.02135037 37.84277974 -25.12729168 26.93390846 C-17.78281796 16.50301655 -10.02021398 7.91726695 0 0 Z " transform="translate(11.26861572265625,-9.55963134765625)" style="fill: #FEFEFE;"/><path d="M0 0 C7.25 -0.4375 7.25 -0.4375 14 0 C16.64 0.99 19.28 1.98 22 3 C22.99 3.99 22.99 3.99 24 5 C23.67 6.65 23.34 8.3 23 10 C19.535 12.97 19.535 12.97 16 16 C20.26719833 17.37651559 24.56215649 18.69185282 28.92578125 19.72265625 C34 21 34 21 40.9375 23.9375 C45.02193231 26.00076993 49.06431221 28.14920474 53.0625 30.375 C54.691875 31.24125 56.32125 32.1075 58 33 C59.32 33 60.64 33 62 33 C63.19625 31.783125 64.3925 30.56625 65.625 29.3125 C67.06875 27.889375 68.5125 26.46625 70 25 C75.1875 22.0625 75.1875 22.0625 80 20 C85 19 85 19 92.8125 18.8125 C96.8653125 18.9053125 96.8653125 18.9053125 101 19 C109 21 109 21 114.4375 23.25 C119.73740011 25.87017533 124.29622049 28.42247756 129 32 C134.125 37 134.125 37 139 43 C142.60086465 49.40153716 145.49954451 55.57935216 147.9375 62.5 C149 68 149 68 149.4375 74.875 C149 82 149 82 147.375 88.6875 C145 95 145 95 142.25 100.75 C139 106 139 106 135.4375 110.625 C131 115 131 115 125 119.5625 C119.57820615 122.99953003 114.67875897 125.54168018 108.875 128.125 C105.471875 130.043125 105.471875 130.043125 102 132 C103.65 134.31 105.3 136.62 107 139 C107.33 139.99 107.66 140.98 108 142 C108 144.64 108 147.28 108 150 C106.02 153.96 106.02 153.96 104 158 C102.02 159.65 100.04 161.3 98 163 C96.35 163.66 94.7 164.32 93 165 C95.97 166.32 98.94 167.64 102 169 C106.6875 172.1875 106.6875 172.1875 111 176 C114.375 180.4375 114.375 180.4375 117 185 C117.99 187.64 118.98 190.28 120 193 C120 196.3 120 199.6 120 203 C118.515 207.455 118.515 207.455 117 212 C115.68 213.65 114.36 215.3 113 217 C112.34 217 111.68 217 111 217 C111 217.66 111 218.32 111 219 C109.02 219.33 107.04 219.66 105 220 C105 217.69 105 215.38 105 213 C107.64 211.35 110.28 209.7 113 208 C113.66 206.68 114.32 205.36 115 204 C115 200.7 115 197.4 115 194 C113.02 189.545 113.02 189.545 111 185 C109.02 182.36 107.04 179.72 105 177 C101.535 174.525 101.535 174.525 98 172 C95.69 171.01 93.38 170.02 91 169 C84.62556467 168.41642596 84.62556467 168.41642596 78 169 C72.15953593 170.82514502 67.10400291 173.44799854 61.625 176.1875 C54.96391988 180.02076309 48.99785364 184.20171709 43 189 C42.34 189.99 41.68 190.98 41 192 C41.33 194.31 41.66 196.62 42 199 C42.99 201.475 42.99 201.475 44 204 C42.35 204 40.7 204 39 204 C38.01 201.69 37.02 199.38 36 197 C36 194.69 36 192.38 36 190 C37.175625 188.659375 38.35125 187.31875 39.5625 185.9375 C41.2640625 183.9884375 41.2640625 183.9884375 43 182 C42.67 180.02 42.34 178.04 42 176 C40.35 177.65 38.7 179.3 37 181 C35.68 181.99 34.36 182.98 33 184 C32.01 184.33 31.02 184.66 30 185 C27.03 185 24.06 185 21 185 C16 183.4375 16 183.4375 11 181 C6.125 177.6875 6.125 177.6875 2 174 C0.02 170.535 0.02 170.535 -2 167 C-2.51490891 163.36673967 -2.93010315 159.71809541 -3.25 156.0625 C-3.8275 153.401875 -4.405 150.74125 -5 148 C-9.02263762 153.95440488 -9.02263762 153.95440488 -11.16015625 159.1484375 C-13.1926631 164.30300106 -13.1926631 164.30300106 -15 171 C-15.41671739 178.91653964 -15.41671739 178.91653964 -15 187 C-14.01 189.97 -13.02 192.94 -12 196 C-7.96560386 199.89587284 -7.96560386 199.89587284 -4 203 C-4 203.66 -4 204.32 -4 205 C-8.8125 205.3125 -8.8125 205.3125 -16 205 C-22.33816692 204.03110824 -28.671989 203.03314465 -35 202 C-37.31 202 -39.62 202 -42 202 C-38.85046967 206.84330708 -38.85046967 206.84330708 -34 212 C-32.783125 213.36125 -31.56625 214.7225 -30.3125 216.125 C-25.95584114 220.19292745 -25.95584114 220.19292745 -20.5 223.875 C-11.99933147 228.55036769 -3.31445084 232.09318777 5.71875 235.60546875 C7.4615625 236.39566406 9.204375 237.18585938 11 238 C12.65 239.65 14.3 241.3 16 243 C16.33 243.99 16.66 244.98 17 246 C17 248.64 17 251.28 17 254 C15.515 258.455 15.515 258.455 14 263 C10.75 267.3125 10.75 267.3125 7 271 C0 275 0 275 -5 277 C-8.1246875 277.0928125 -8.1246875 277.0928125 -11.3125 277.1875 C-13.6328125 277.5896875 -13.6328125 277.5896875 -16 278 C-12.76194297 281.70438707 -12.76194297 281.70438707 -8 285 C-7.34 285.66 -6.68 286.32 -6 287 C-3.03 287 -0.06 287 3 287 C9.52477099 285.46688472 9.52477099 285.46688472 16 283 C17.876875 281.700625 19.75375 280.40125 21.6875 279.0625 C23.110625 278.381875 24.53375 277.70125 26 277 C26.14973267 279.60805542 26.14973267 279.60805542 26.30249023 282.26879883 C27.14275757 285.10574341 27.14275757 285.10574341 28 288 C30.19019775 288.49588623 32.38039551 288.99177246 34.63696289 289.50268555 C46.31958457 289.6954547 46.31958457 289.6954547 58.00317383 289.70874023 C63.05074978 289.68754933 68.08137701 289.81006885 73.12695312 289.94335938 C76.27291016 289.94529297 79.41886719 289.94722656 82.66015625 289.94921875 C87.03213257 289.96988403 87.03213257 289.96988403 91.49243164 289.9909668 C93.6399292 289.33394775 95.78742676 288.67692871 98 288 C99.26708593 279.85812621 99.26708593 279.85812621 99 272 C100.98 272.66 102.96 273.32 105 274 C106.32 275.98 107.64 277.96 109 280 C109.33 280.99 109.66 281.98 110 283 C110 285.64 110 288.28 110 291 C108.6875 296.25 108.6875 296.25 107 301 C105.515 302.98 105.515 302.98 104 305 C110.14728086 305.51989006 110.14728086 305.51989006 118.109375 305.28515625 C122.58371094 305.24551758 122.58371094 305.24551758 127.1484375 305.20507812 C131.90121094 305.13450195 131.90121094 305.13450195 136.75 305.0625 C142.95295664 304.97754536 149.15610345 304.90519307 155.359375 304.84765625 C158.13827148 304.80648682 160.91716797 304.76531738 163.78027344 304.72290039 C166.85903809 304.8600647 166.85903809 304.8600647 170 305 C170.33 305.99 170.66 306.98 171 308 C166.39180801 308.30932712 161.76811318 308.3790266 157.14955139 308.38095093 C152.50700035 308.39364014 152.50700035 308.39364014 147.7706604 308.40658569 C144.29119821 308.4007514 140.81173654 308.39460681 137.33227539 308.38818359 C133.70685162 308.39224387 130.08142908 308.39758266 126.45600891 308.40411377 C116.56780474 308.41785833 106.67969386 308.41245922 96.79148793 308.40297651 C86.47479441 308.39541615 76.15810922 308.40241544 65.84141541 308.40713501 C48.51055457 308.41260343 31.17973199 308.40537277 13.84887695 308.39111328 C-6.22613719 308.37478734 -26.30105994 308.38007064 -46.37607187 308.3965925 C-63.56912329 308.41017954 -80.76214711 308.41214059 -97.95520216 308.40427649 C-108.24259507 308.39958431 -118.52994494 308.39901728 -128.81733513 308.40888596 C-138.48692569 308.41751286 -148.15639774 308.41161225 -157.82597542 308.39420319 C-161.38811165 308.39021528 -164.95025775 308.3914113 -168.51239014 308.39799118 C-173.34911254 308.40610583 -178.18585658 308.39415879 -183.02256775 308.38095093 C-187.09515379 308.37925431 -187.09515379 308.37925431 -191.25001431 308.37752342 C-193.14750958 308.25294069 -195.04500486 308.12835796 -197 308 C-197 307.01 -197 306.02 -197 305 C-192.30842934 305.65983887 -192.30842934 305.65983887 -187.52207947 306.33300781 C-179.31135576 307.38877093 -171.36211318 308.06866499 -163.08151245 307.73242188 C-160.33063356 307.31029419 -160.33063356 307.31029419 -157.52418137 306.87963867 C-156.03120152 306.25935791 -154.53822166 305.63907715 -153 305 C-151.70812775 302.29876953 -150.41625549 299.59753906 -149.0852356 296.81445312 C-147.92945556 288.79183304 -147.92977409 280.87713203 -148.09046936 272.78271484 C-148.32748683 268.1048892 -148.5695933 263.42731904 -148.81640625 258.75 C-148.91325713 253.99074144 -148.99114353 249.23106192 -149.05076599 244.47119141 C-149.2616587 231.87990504 -149.73872869 219.3117497 -150.26745605 206.73034668 C-150.75399764 193.98263498 -150.97932822 181.23064463 -151.23242188 168.4765625 C-151.64649065 149.79956079 -152.14693186 131.12874272 -152.86938477 112.4609375 C-152.93707565 110.51740387 -153.00476654 108.57387024 -153.07450867 106.57144165 C-153.52546159 95.77452267 -154.86161312 85.62204888 -157 75 C-156.9375 68.25 -156.9375 68.25 -156 62 C-154.3125 55.8125 -154.3125 55.8125 -152 50 C-149.16079147 44.64422028 -146.05933652 40.07542778 -142.3125 35.3125 C-138 31 -138 31 -132.625 27.1875 C-127.48714209 24.27604718 -122.55518529 21.97855915 -117 20 C-115.68 19.67 -114.36 19.34 -113 19 C-109.46106757 18.8261877 -105.91790547 18.73304479 -102.375 18.6875 C-100.48523438 18.65011719 -98.59546875 18.61273438 -96.6484375 18.57421875 C-93.85246094 18.78498047 -93.85246094 18.78498047 -91 19 C-85.609375 20.76171875 -85.609375 20.76171875 -81 23 C-75.875 27.125 -75.875 27.125 -72 31 C-72 31.66 -72 32.32 -72 33 C-68.08199269 30.76113868 -64.18419902 28.48185613 -60.375 26.0625 C-55 23 -55 23 -49.0625 20.375 C-43.25583157 18.42231504 -37.92406954 17.1355405 -31.9375 16 C-28.988125 15.34 -26.03875 14.68 -23 14 C-21.68 12.35 -20.36 10.7 -19 9 C-16.69 7.35 -14.38 5.7 -12 4 C-6.4375 1.6875 -6.4375 1.6875 0 0 Z " transform="translate(261,90)" style="fill: #6DAABE;"/><path d="M0 0 C7.25 -0.4375 7.25 -0.4375 14 0 C16.64 0.99 19.28 1.98 22 3 C22.99 3.99 22.99 3.99 24 5 C23.67 6.65 23.34 8.3 23 10 C19.535 12.97 19.535 12.97 16 16 C20.26719833 17.37651559 24.56215649 18.69185282 28.92578125 19.72265625 C34 21 34 21 40.9375 23.9375 C45.02193231 26.00076993 49.06431221 28.14920474 53.0625 30.375 C54.691875 31.24125 56.32125 32.1075 58 33 C59.32 33 60.64 33 62 33 C63.19625 31.783125 64.3925 30.56625 65.625 29.3125 C67.06875 27.889375 68.5125 26.46625 70 25 C75.1875 22.0625 75.1875 22.0625 80 20 C85 19 85 19 92.8125 18.8125 C96.8653125 18.9053125 96.8653125 18.9053125 101 19 C109 21 109 21 114.4375 23.25 C119.73740011 25.87017533 124.29622049 28.42247756 129 32 C134.125 37 134.125 37 139 43 C142.60086465 49.40153716 145.49954451 55.57935216 147.9375 62.5 C149 68 149 68 149.4375 74.875 C149 82 149 82 147.375 88.6875 C145 95 145 95 142.25 100.75 C139 106 139 106 135.4375 110.625 C131 115 131 115 125 119.5625 C119.57820615 122.99953003 114.67875897 125.54168018 108.875 128.125 C105.471875 130.043125 105.471875 130.043125 102 132 C103.65 134.31 105.3 136.62 107 139 C107.33 139.99 107.66 140.98 108 142 C108 144.64 108 147.28 108 150 C106.02 153.96 106.02 153.96 104 158 C102.02 159.65 100.04 161.3 98 163 C96.35 163.66 94.7 164.32 93 165 C95.97 166.32 98.94 167.64 102 169 C106.6875 172.1875 106.6875 172.1875 111 176 C114.375 180.4375 114.375 180.4375 117 185 C117.99 187.64 118.98 190.28 120 193 C120 196.3 120 199.6 120 203 C118.515 207.455 118.515 207.455 117 212 C115.68 213.65 114.36 215.3 113 217 C112.34 217 111.68 217 111 217 C111 217.66 111 218.32 111 219 C109.02 219.33 107.04 219.66 105 220 C105 217.69 105 215.38 105 213 C107.64 211.35 110.28 209.7 113 208 C113.66 206.68 114.32 205.36 115 204 C115 200.7 115 197.4 115 194 C113.02 189.545 113.02 189.545 111 185 C109.02 182.36 107.04 179.72 105 177 C101.535 174.525 101.535 174.525 98 172 C95.69 171.01 93.38 170.02 91 169 C84.62556467 168.41642596 84.62556467 168.41642596 78 169 C72.15953593 170.82514502 67.10400291 173.44799854 61.625 176.1875 C54.96391988 180.02076309 48.99785364 184.20171709 43 189 C42.34 189.99 41.68 190.98 41 192 C41.33 194.31 41.66 196.62 42 199 C42.99 201.475 42.99 201.475 44 204 C42.35 204 40.7 204 39 204 C38.01 201.69 37.02 199.38 36 197 C36 194.69 36 192.38 36 190 C36.928125 188.68 37.85625 187.36 38.8125 186 C43 182 43 182 48 178.5 C57.9524417 172.69440901 67.42029141 167.56190977 78.3125 163.6875 C83.2365712 162.16422618 88.16901415 160.66599596 93.125 159.25 C95.043125 158.63125 95.043125 158.63125 97 158 C97 157.34 97 156.68 97 156 C98.32 155.01 99.64 154.02 101 153 C101.66 151.35 102.32 149.7 103 148 C103 146.02 103 144.04 103 142 C101.35 140.02 99.7 138.04 98 136 C93.63142293 133.66213769 93.63142293 133.66213769 87 132 C87 131.67 87 131.34 87 131 C89.97 131 92.94 131 96 131 C96.48726563 128.463125 96.48726563 128.463125 96.984375 125.875 C96.64506863 115.92201323 96.15498209 106.19680614 94.875 96.3125 C92.86471483 88.47238785 90.31089033 81.38583228 87 74 C83.87006649 68.19539603 80.57363161 62.80529053 76.75 57.4375 C72.08926306 51.92229462 67.30210908 46.91142736 62 42 C54.28854522 36.67704891 46.57921468 31.7789398 38 28 C32.04205692 25.87799288 26.04118594 23.87191677 20 22 C12.68219104 20.91731018 12.68219104 20.91731018 8 21 C8.33 19.35 8.66 17.7 9 16 C11.62559978 13.6205502 14.29182336 11.28502404 17 9 C17.33 8.01 17.66 7.02 18 6 C10.76085525 5.57966256 4.18042702 5.38073295 -3 6 C-5.26875 6.825 -7.5375 7.65 -9.875 8.5 C-12.411875 10.2325 -12.411875 10.2325 -15 12 C-16.093125 13.4025 -17.18625 14.805 -18.3125 16.25 C-19.529375 17.4875 -20.74625 18.725 -22 20 C-29.3125 21.3125 -29.3125 21.3125 -37 22 C-42.10237811 23.08903956 -42.10237811 23.08903956 -47 25 C-51.7311791 27.19958327 -56.40212872 29.53386904 -61 32 C-63.64 33.98 -66.28 35.96 -69 38 C-70.32 38.33 -71.64 38.66 -73 39 C-74.32 37.02 -75.64 35.04 -77 33 C-79.64 31.02 -82.28 29.04 -85 27 C-87.64 26.01 -90.28 25.02 -93 24 C-100.83296721 23.49975669 -100.83296721 23.49975669 -109 24 C-115.31461951 25.03640437 -115.31461951 25.03640437 -121 27 C-126.19984899 29.01656227 -126.19984899 29.01656227 -131 32 C-136.34480511 36.09365369 -136.34480511 36.09365369 -141 41 C-144.48903418 45.73170733 -144.48903418 45.73170733 -147 51 C-149.58831523 56.5101489 -149.58831523 56.5101489 -151 63 C-151.50009712 72.62519462 -151.50009712 72.62519462 -151 82 C-149.41010203 90.48671943 -149.41010203 90.48671943 -146.8125 96.0625 C-144.11438008 101.08865121 -144.11438008 101.08865121 -140.4375 105.5 C-138.7359375 107.2325 -138.7359375 107.2325 -137 109 C-135.68 109.66 -134.36 110.32 -133 111 C-132.01 111.99 -131.02 112.98 -130 114 C-127.525 115.134375 -125.05 116.26875 -122.5 117.4375 C-120.025 118.943125 -117.55 120.44875 -115 122 C-114.2575 123.93875 -113.515 125.8775 -112.75 127.875 C-112.37875 130.906875 -112.37875 130.906875 -112 134 C-110.92327482 138.84288738 -110.92327482 138.84288738 -109 144 C-106.13255824 149.73488351 -103.13540456 155.40711619 -100 161 C-98.35 162.98 -96.7 164.96 -95 167 C-95 167.99 -95 168.98 -95 170 C-93.02 170.99 -93.02 170.99 -91 172 C-87.97879939 174.97864849 -84.9795229 177.97966172 -82 181 C-80.35 182.32 -78.7 183.64 -77 185 C-77.4140625 189.515625 -77.4140625 189.515625 -79 195 C-80.40429545 198.93636484 -81.86698004 202.85219425 -83.375 206.75 C-86.97255648 216.62734911 -89.76203088 226.1690338 -91.41796875 236.55078125 C-92.39530512 245.70101104 -92.63993025 254.81774505 -92 264 C-90.16006745 272.33655208 -90.16006745 272.33655208 -86 281 C-84.35 283.64 -82.7 286.28 -81 289 C-78.69 290.98 -76.38 292.96 -74 295 C-68.79150219 297.80714964 -68.79150219 297.80714964 -63 300 C-56.24167282 301.91144607 -49.98686618 303.12664173 -43 304 C-36.65845362 304.22050271 -30.3427224 304.36766745 -24 304.4375 C-22.27136719 304.48326172 -20.54273438 304.52902344 -18.76171875 304.57617188 C-13.32867146 304.69832257 -13.32867146 304.69832257 -6 304 C-6 302.02 -6 300.04 -6 298 C-7.32 295.36 -8.64 292.72 -10 290 C-11.98 287.69 -13.96 285.38 -16 283 C-20.76832703 279.65566314 -20.76832703 279.65566314 -26 277 C-34.7699105 273.948869 -34.7699105 273.948869 -43 272 C-45.97 271.67 -48.94 271.34 -52 271 C-52 270.34 -52 269.68 -52 269 C-49.36 268.67 -46.72 268.34 -44 268 C-45.98 267.01 -47.96 266.02 -50 265 C-53.39562205 261.73014173 -56.72934622 258.39485582 -60 255 C-61.65 253.35 -63.3 251.7 -65 250 C-68.44182678 244.73602964 -71.78311395 239.40436857 -75 234 C-75 233.01 -75 232.02 -75 231 C-73.68 231 -72.36 231 -71 231 C-68.94792106 234.63777631 -66.95766408 238.31055617 -65 242 C-62.41912899 245.40019515 -59.75356572 248.73808369 -57 252 C-55.96875 253.36125 -54.9375 254.7225 -53.875 256.125 C-52.59625 257.40375 -51.3175 258.6825 -50 260 C-43.43582924 264.41795539 -43.43582924 264.41795539 -36 268 C-29.22263394 270.67449823 -29.22263394 270.67449823 -22 272 C-13.29075585 272.75050312 -13.29075585 272.75050312 -5 272 C-2.3703125 270.88625 -2.3703125 270.88625 0.3125 269.75 C4.21366443 266.97848344 4.21366443 266.97848344 8 263 C8.99 260.36 9.98 257.72 11 255 C11 252.03 11 249.06 11 246 C9.35 244.35 7.7 242.7 6 241 C1.03035812 238.92571469 -3.97274426 236.9304662 -9 235 C-15.77670364 231.84804482 -21.9277026 228.36179109 -28 224 C-32.5 220.375 -32.5 220.375 -37 216 C-42.25 209.6875 -42.25 209.6875 -46 204 C-45.01 203.01 -44.02 202.02 -43 201 C-39.89016708 204.57398708 -36.90857853 208.26039903 -34 212 C-30.31257098 216.27078005 -30.31257098 216.27078005 -26 220 C-20.31631474 224.15625957 -20.31631474 224.15625957 -13 228 C-6.79624215 230.63740487 -0.56412793 233.16256584 5.71875 235.60546875 C7.4615625 236.39566406 9.204375 237.18585938 11 238 C12.65 239.65 14.3 241.3 16 243 C16.33 243.99 16.66 244.98 17 246 C17 248.64 17 251.28 17 254 C15.515 258.455 15.515 258.455 14 263 C10.75 267.3125 10.75 267.3125 7 271 C0 275 0 275 -5 277 C-8.1246875 277.0928125 -8.1246875 277.0928125 -11.3125 277.1875 C-13.6328125 277.5896875 -13.6328125 277.5896875 -16 278 C-12.76194297 281.70438707 -12.76194297 281.70438707 -8 285 C-7.34 285.66 -6.68 286.32 -6 287 C-3.03 287 -0.06 287 3 287 C9.52477099 285.46688472 9.52477099 285.46688472 16 283 C17.876875 281.700625 19.75375 280.40125 21.6875 279.0625 C23.110625 278.381875 24.53375 277.70125 26 277 C26.14973267 279.60805542 26.14973267 279.60805542 26.30249023 282.26879883 C27.14275757 285.10574341 27.14275757 285.10574341 28 288 C30.19019775 288.49588623 32.38039551 288.99177246 34.63696289 289.50268555 C46.31958457 289.6954547 46.31958457 289.6954547 58.00317383 289.70874023 C63.05074978 289.68754933 68.08137701 289.81006885 73.12695312 289.94335938 C76.27291016 289.94529297 79.41886719 289.94722656 82.66015625 289.94921875 C87.03213257 289.96988403 87.03213257 289.96988403 91.49243164 289.9909668 C93.6399292 289.33394775 95.78742676 288.67692871 98 288 C99.26708593 279.85812621 99.26708593 279.85812621 99 272 C100.98 272.66 102.96 273.32 105 274 C106.32 275.98 107.64 277.96 109 280 C109.33 280.99 109.66 281.98 110 283 C110 285.64 110 288.28 110 291 C108.6875 296.25 108.6875 296.25 107 301 C105.515 302.98 105.515 302.98 104 305 C110.14728086 305.51989006 110.14728086 305.51989006 118.109375 305.28515625 C122.58371094 305.24551758 122.58371094 305.24551758 127.1484375 305.20507812 C131.90121094 305.13450195 131.90121094 305.13450195 136.75 305.0625 C142.95295664 304.97754536 149.15610345 304.90519307 155.359375 304.84765625 C158.13827148 304.80648682 160.91716797 304.76531738 163.78027344 304.72290039 C166.85903809 304.8600647 166.85903809 304.8600647 170 305 C170.33 305.99 170.66 306.98 171 308 C166.39180801 308.30932712 161.76811318 308.3790266 157.14955139 308.38095093 C152.50700035 308.39364014 152.50700035 308.39364014 147.7706604 308.40658569 C144.29119821 308.4007514 140.81173654 308.39460681 137.33227539 308.38818359 C133.70685162 308.39224387 130.08142908 308.39758266 126.45600891 308.40411377 C116.56780474 308.41785833 106.67969386 308.41245922 96.79148793 308.40297651 C86.47479441 308.39541615 76.15810922 308.40241544 65.84141541 308.40713501 C48.51055457 308.41260343 31.17973199 308.40537277 13.84887695 308.39111328 C-6.22613719 308.37478734 -26.30105994 308.38007064 -46.37607187 308.3965925 C-63.56912329 308.41017954 -80.76214711 308.41214059 -97.95520216 308.40427649 C-108.24259507 308.39958431 -118.52994494 308.39901728 -128.81733513 308.40888596 C-138.48692569 308.41751286 -148.15639774 308.41161225 -157.82597542 308.39420319 C-161.38811165 308.39021528 -164.95025775 308.3914113 -168.51239014 308.39799118 C-173.34911254 308.40610583 -178.18585658 308.39415879 -183.02256775 308.38095093 C-187.09515379 308.37925431 -187.09515379 308.37925431 -191.25001431 308.37752342 C-193.14750958 308.25294069 -195.04500486 308.12835796 -197 308 C-197 307.01 -197 306.02 -197 305 C-192.30842934 305.65983887 -192.30842934 305.65983887 -187.52207947 306.33300781 C-179.31135576 307.38877093 -171.36211318 308.06866499 -163.08151245 307.73242188 C-160.33063356 307.31029419 -160.33063356 307.31029419 -157.52418137 306.87963867 C-156.03120152 306.25935791 -154.53822166 305.63907715 -153 305 C-151.70812775 302.29876953 -150.41625549 299.59753906 -149.0852356 296.81445312 C-147.92945556 288.79183304 -147.92977409 280.87713203 -148.09046936 272.78271484 C-148.32748683 268.1048892 -148.5695933 263.42731904 -148.81640625 258.75 C-148.91325713 253.99074144 -148.99114353 249.23106192 -149.05076599 244.47119141 C-149.2616587 231.87990504 -149.73872869 219.3117497 -150.26745605 206.73034668 C-150.75399764 193.98263498 -150.97932822 181.23064463 -151.23242188 168.4765625 C-151.64649065 149.79956079 -152.14693186 131.12874272 -152.86938477 112.4609375 C-152.93707565 110.51740387 -153.00476654 108.57387024 -153.07450867 106.57144165 C-153.52546159 95.77452267 -154.86161312 85.62204888 -157 75 C-156.9375 68.25 -156.9375 68.25 -156 62 C-154.3125 55.8125 -154.3125 55.8125 -152 50 C-149.16079147 44.64422028 -146.05933652 40.07542778 -142.3125 35.3125 C-138 31 -138 31 -132.625 27.1875 C-127.48714209 24.27604718 -122.55518529 21.97855915 -117 20 C-115.68 19.67 -114.36 19.34 -113 19 C-109.46106757 18.8261877 -105.91790547 18.73304479 -102.375 18.6875 C-100.48523438 18.65011719 -98.59546875 18.61273438 -96.6484375 18.57421875 C-93.85246094 18.78498047 -93.85246094 18.78498047 -91 19 C-85.609375 20.76171875 -85.609375 20.76171875 -81 23 C-75.875 27.125 -75.875 27.125 -72 31 C-72 31.66 -72 32.32 -72 33 C-68.08199269 30.76113868 -64.18419902 28.48185613 -60.375 26.0625 C-55 23 -55 23 -49.0625 20.375 C-43.25583157 18.42231504 -37.92406954 17.1355405 -31.9375 16 C-28.988125 15.34 -26.03875 14.68 -23 14 C-21.68 12.35 -20.36 10.7 -19 9 C-16.69 7.35 -14.38 5.7 -12 4 C-6.4375 1.6875 -6.4375 1.6875 0 0 Z " transform="translate(261,90)" style="fill: #481F47;"/><path d="M0 0 C6.0625 -0.25 6.0625 -0.25 13 0 C18.5625 1.125 18.5625 1.125 24 3 C30.1875 5.75 30.1875 5.75 36 9 C40.75 12.75 40.75 12.75 44 16 C44 16.66 44 17.32 44 18 C45.485 18.495 45.485 18.495 47 19 C50.4375 23.6875 50.4375 23.6875 54 30 C56.4375 36.875 56.4375 36.875 58 44 C58.5 50.375 58.5 50.375 58 57 C56.5 65.125 56.5 65.125 54 73 C50.43592728 78.70251635 46.58477627 83.35953075 42.0625 88.3125 C37.92861942 92.06479161 33.73328857 95.05026944 29 98 C24 101 24 101 18 104 C17.01 104 16.02 104 15 104 C14.69638165 99.17584177 14.41037587 94.34973822 14.2265625 89.51953125 C13.91381696 81.90040289 13.19855722 74.53378822 12 67 C9.33905102 58.70037342 6.17739848 51.33762937 2.125 43.625 C-1.6039562 37.63607034 -5.38553296 32.32438505 -10 27 C-12.94213808 23.94323316 -15.93210208 20.93052936 -19 18 C-19.99 17.34 -20.98 16.68 -22 16 C-21.34 14.68 -20.68 13.36 -20 12 C-18.68 10.35 -17.36 8.7 -16 7 C-12.06768678 4.86999701 -8.06546148 2.86333651 -4 1 C-2.68 0.67 -1.36 0.34 0 0 Z " transform="translate(347,113)" style="fill: #6DA8BD;"/><path d="M0 0 C0.33 0 0.66 0 1 0 C1.42011113 3.30950856 1.81005587 6.62285429 2.1875 9.9375 C2.7096775 13.63750058 3.30609775 17.32832827 4 21 C5.2684375 23.6915625 5.2684375 23.6915625 6.5625 26.4375 C8.2640625 28.2009375 8.2640625 28.2009375 10 30 C14.8716651 33.50676409 14.8716651 33.50676409 20 36 C21.98 36.66 23.96 37.32 26 38 C28.97 38 31.94 38 35 38 C36.98 37.01 38.96 36.02 41 35 C42.32 33.35 43.64 31.7 45 30 C45.66 30 46.32 30 47 30 C47.99 32.97 47.99 32.97 49 36 C46.6939976 38.69033613 44.35913984 41.35613639 42 44 C42 46.31 42 48.62 42 51 C42.66 53.31 43.32 55.62 44 58 C39.545 57.38125 39.545 57.38125 35 56.75 C32.03 56.8325 29.06 56.915 26 57 C26.26663645 63.57599906 26.97545423 69.53494257 28 76 C28.56863916 82.56021787 29.11022633 89.12283572 29.625 95.6875 C29.88539063 98.95011719 30.14578125 102.21273437 30.4140625 105.57421875 C30.94508358 114.11657781 31.42110691 122.45011019 31 131 C29.618125 132.4025 28.23625 133.805 26.8125 135.25 C21 138 21 138 14.4375 140.4375 C12.313125 140.953125 10.18875 141.46875 8 142 C5.03 142 2.06 142 -1 142 C-5.375 138.1875 -5.375 138.1875 -9 134 C-9.99 133.01 -10.98 132.02 -12 131 C-9.40125 130.7834375 -9.40125 130.7834375 -6.75 130.5625 C-4.5225 130.376875 -2.295 130.19125 0 130 C2.97 128.68 5.94 127.36 9 126 C11.31 124.02 13.62 122.04 16 120 C17.32 117.36 18.64 114.72 20 112 C20.495 110.02 20.495 110.02 21 108 C21 105.36 21 102.72 21 100 C20.01 98.02 19.02 96.04 18 94 C13.41344687 91.82254548 8.72697241 89.85297318 4 88 C-3.71969072 84.81783741 -10.86684296 81.73534659 -17.875 77.1875 C-23.30917276 72.74738323 -28.20284993 68.12128183 -33 63 C-35.475 59.535 -35.475 59.535 -38 56 C-38 55.67 -38 55.34 -38 55 C-28.73987581 55 -20.13832 56.53552564 -11 58 C-4.05960249 59.10132909 -4.05960249 59.10132909 1 59 C-0.32 57.35 -1.64 55.7 -3 54 C-4.65 52.68 -6.3 51.36 -8 50 C-9.485 45.545 -9.485 45.545 -11 41 C-11.4375 33.125 -11.4375 33.125 -11 25 C-9.13520565 18.28674034 -6.33522978 12.61412311 -3.3125 6.3125 C-1.6728125 3.1878125 -1.6728125 3.1878125 0 0 Z " transform="translate(256,236)" style="fill: #C0C1C4;"/><path d="M0 0 C7.125 -0.4375 7.125 -0.4375 14 0 C15.98 0.99 17.96 1.98 20 3 C25 8 25 8 28 12 C30.475 13.485 30.475 13.485 33 15 C35.31 16.98 37.62 18.96 40 21 C43.3 21 46.6 21 50 21 C51.98 19.35 53.96 17.7 56 16 C57.98 16.495 57.98 16.495 60 17 C59.34 18.32 58.68 19.64 58 21 C56.35 22.32 54.7 23.64 53 25 C51.68 25.66 50.36 26.32 49 27 C46.36 27 43.72 27 41 27 C39.329375 25.72125 37.65875 24.4425 35.9375 23.125 C34.638125 22.42375 33.33875 21.7225 32 21 C31.79393425 27.31163788 31.79393425 27.31163788 33 35 C33.3125 40.75 33.3125 40.75 33 46 C32.54625 47.629375 32.0925 49.25875 31.625 50.9375 C29 56 29 56 24.0625 62.5 C21.5565625 65.2225 21.5565625 65.2225 19 68 C16.525 68.99 16.525 68.99 14 70 C11.03 70 8.06 70 5 70 C0 68.4375 0 68.4375 -5 66 C-9.875 62.6875 -9.875 62.6875 -14 59 C-15.32 56.69 -16.64 54.38 -18 52 C-19.25 47.25 -19.25 47.25 -20 41 C-20.375 31.4375 -20.375 31.4375 -20 22 C-19.505 20.123125 -19.01 18.24625 -18.5 16.3125 C-16 12 -16 12 -12.25 7.625 C-10.8475 6.42875 -9.445 5.2325 -8 4 C-5.36 2.68 -2.72 1.36 0 0 Z " transform="translate(277,205)" style="fill: #26174C;"/><path d="M0 0 C0.33 0 0.66 0 1 0 C1.061875 2.76375 1.12375 5.5275 1.1875 8.375 C1.455625 11.55125 1.72375 14.7275 2 18 C2.886875 19.876875 3.77375 21.75375 4.6875 23.6875 C7.66271227 27.56088956 10.82142975 31.29166804 14 35 C14.66 35.33 15.32 35.66 16 36 C16 36.66 16 37.32 16 38 C17.98 38.66 19.96 39.32 22 40 C27 43 27 43 32 46 C37.63686545 48.69589217 43.07072398 51.02357466 49 53 C51.31 53 53.62 53 56 53 C57.98 51.35 59.96 49.7 62 48 C62.99 45.69 63.98 43.38 65 41 C65.66 41 66.32 41 67 41 C66.67 43.31 66.34 45.62 66 48 C63.69 50.31 61.38 52.62 59 55 C58.34 55 57.68 55 57 55 C57.15716912 63.64430154 58.13514286 71.74078306 59.6875 80.25 C61.69345502 88.87544608 61.69345502 88.87544608 65.25 96 C66.1575 97.65 67.065 99.3 68 101 C68 101.66 68 102.32 68 103 C68.66 103 69.32 103 70 103 C71.98 105.64 73.96 108.28 76 111 C78.95003212 113.07299554 81.94740851 115.08122821 85 117 C86.32 118.32 87.64 119.64 89 121 C91.31 121.99 93.62 122.98 96 124 C96 124.66 96 125.32 96 126 C97.65 126.33 99.3 126.66 101 127 C102.485 127.495 102.485 127.495 104 128 C104 128.66 104 129.32 104 130 C106.31 130.33 108.62 130.66 111 131 C113.31 131.66 115.62 132.32 118 133 C125.29055187 134.58490258 132.30490996 135.94851185 139.75 136.5 C141.4825 136.665 143.215 136.83 145 137 C145.99 137.99 146.98 138.98 148 140 C148 140.66 148 141.32 148 142 C143.1875 142.3125 143.1875 142.3125 136 142 C129.66371176 141.01889731 123.33020267 140.01962996 117 139 C114.03 139 111.06 139 108 139 C107.67 139.99 107.34 140.98 107 142 C100.20352477 143.13274587 93.88446893 143.18277351 87 143 C80 141 80 141 71 137 C72 131 72 131 74 125 C73.67 123.68 73.34 122.36 73 121 C67.83239489 116.10800049 62.46668959 111.55557466 57 107 C56.01 105.35 55.02 103.7 54 102 C52.9275 100.39125 51.855 98.7825 50.75 97.125 C46.52315826 90.22115849 43.09089077 83.48946611 40 76 C39.484375 72.926875 38.96875 69.85375 38.4375 66.6875 C37.963125 64.150625 37.48875 61.61375 37 59 C35.02 58.34 33.04 57.68 31 57 C26.94072719 54.77137964 22.93182377 52.44646812 19 50 C19 49.34 19 48.68 19 48 C17.35 47.34 15.7 46.68 14 46 C9.4375 40.9375 9.4375 40.9375 5 35 C3.68 32.03 2.36 29.06 1 26 C-0.24576463 17.2796476 -0.12135842 8.79848538 0 0 Z " transform="translate(109,153)" style="fill: #447B90;"/><path d="M0 0 C2.26875 -0.2475 4.5375 -0.495 6.875 -0.75 C8.89625 -0.5025 10.9175 -0.255 13 0 C18.3125 2.0625 18.3125 2.0625 23 5 C27.25 8.125 27.25 8.125 31 12 C34.4375 17.75 34.4375 17.75 37 23 C37.495 24.485 37.495 24.485 38 26 C38 29.3 38 32.6 38 36 C36.68 37.98 35.36 39.96 34 42 C32.35 42.99 30.7 43.98 29 45 C28.34 45 27.68 45 27 45 C27 41.7 27 38.4 27 35 C20.98468534 34.67439938 20.98468534 34.67439938 13 36 C4.96093168 36.36632102 -3.07881211 36.45662911 -11.125 36.5625 C-13.27 36.62501953 -15.415 36.68753906 -17.625 36.75195312 C-20.69167969 36.78385742 -20.69167969 36.78385742 -23.8203125 36.81640625 C-25.67930176 36.85193604 -27.53829102 36.88746582 -29.45361328 36.92407227 C-30.9539209 36.61912842 -32.45422852 36.31418457 -34 36 C-35.32 33.36 -36.64 30.72 -38 28 C-37.67 26.02 -37.34 24.04 -37 22 C-30.22509118 16.1929353 -23.63400484 11.60563929 -16 7 C-7.9375 2.9375 -7.9375 2.9375 0 0 Z " transform="translate(339,258)" style="fill: #6EABBD;"/><path d="M0 0 C2.64 0 5.28 0 8 0 C12.9375 2.8125 12.9375 2.8125 17 6 C17.495 7.485 17.495 7.485 18 9 C18 12.3 18 15.6 18 19 C17.505 20.485 17.505 20.485 17 22 C16.01 22.66 15.02 23.32 14 24 C14 24.66 14 25.32 14 26 C14.99 26.66 15.98 27.32 17 28 C16.505 30.475 16.505 30.475 16 33 C14.68 33.99 13.36 34.98 12 36 C12.495 39.465 12.495 39.465 13 43 C11.288125 43.020625 9.57625 43.04125 7.8125 43.0625 C4.9353125 42.5365625 4.9353125 42.5365625 2 42 C0.68 41.34 -0.64 40.68 -2 40 C-2 38.35 -2 36.7 -2 35 C-0.02 34.505 -0.02 34.505 2 34 C2.33 32.35 2.66 30.7 3 29 C0.69 29.66 -1.62 30.32 -4 31 C-4 33.31 -4 35.62 -4 38 C-3.01 40.31 -2.02 42.62 -1 45 C-0.67 46.65 -0.34 48.3 0 50 C-1.65 50 -3.3 50 -5 50 C-5.66 48.02 -6.32 46.04 -7 44 C-7.144375 42.06125 -7.28875 40.1225 -7.4375 38.125 C-7.623125 36.43375 -7.80875 34.7425 -8 33 C-8.99 33 -9.98 33 -11 33 C-11.33 34.32 -11.66 35.64 -12 37 C-14.31 37.99 -16.62 38.98 -19 40 C-21.31 39.67 -23.62 39.34 -26 39 C-25.67 37.35 -25.34 35.7 -25 34 C-24.34 33.34 -23.68 32.68 -23 32 C-21.35 31.67 -19.7 31.34 -18 31 C-19.98 29.35 -21.96 27.7 -24 26 C-24.33 25.34 -24.66 24.68 -25 24 C-25 21.36 -25 18.72 -25 16 C-23.02 13.03 -23.02 13.03 -21 10 C-19.02 9.01 -17.04 8.02 -15 7 C-12.36 7 -9.72 7 -7 7 C-6.01 5.35 -5.02 3.7 -4 2 C-2.68 1.34 -1.36 0.68 0 0 Z " transform="translate(334,315)" style="fill: #10B9C5;"/><path d="M0 0 C5.75 -0.5 5.75 -0.5 11 0 C12.98 1.32 14.96 2.64 17 4 C17.495 5.485 17.495 5.485 18 7 C18 9.97 18 12.94 18 16 C16.50003532 21.05251262 14.85058303 26.06511193 13 31 C12.01 31.495 12.01 31.495 11 32 C10.67 32.99 10.34 33.98 10 35 C8 37 6 39 4 41 C-0.66502293 41.12385017 -5.33503681 41.12608009 -10 41 C-10 40.34 -10 39.68 -10 39 C-11.98 38.67 -13.96 38.34 -16 38 C-16 37.01 -16 36.02 -16 35 C-16.99 34.67 -17.98 34.34 -19 34 C-19.99 32.02 -20.98 30.04 -22 28 C-22.20625 26.06125 -22.4125 24.1225 -22.625 22.125 C-22.41875 20.10375 -22.2125 18.0825 -22 16 C-20.948125 14.515 -19.89625 13.03 -18.8125 11.5 C-15.97099605 8.89140621 -13.01205973 6.40964778 -10 4 C-5.375 1.75 -5.375 1.75 0 0 Z " transform="translate(160,141)" style="fill: #F78985;"/><path d="M0 0 C0.33 0 0.66 0 1 0 C1.42011113 3.30950856 1.81005587 6.62285429 2.1875 9.9375 C2.7096775 13.63750058 3.30609775 17.32832827 4 21 C4.845625 22.794375 5.69125 24.58875 6.5625 26.4375 C7.696875 27.613125 8.83125 28.78875 10 30 C14.8716651 33.50676409 14.8716651 33.50676409 20 36 C21.98 36.66 23.96 37.32 26 38 C28.97 38 31.94 38 35 38 C36.98 37.01 38.96 36.02 41 35 C42.32 33.35 43.64 31.7 45 30 C45.66 30 46.32 30 47 30 C47.66 31.98 48.32 33.96 49 36 C45.6875 40.125 45.6875 40.125 42 44 C41.67 45.32 41.34 46.64 41 48 C32.66191692 50.2622706 24.57338969 51.92832629 16 53 C12.41936935 53.18704787 8.8349052 53.308989 5.25 53.375 C2.50429688 53.44847656 2.50429688 53.44847656 -0.296875 53.5234375 C-1.84890625 53.35070312 -3.4009375 53.17796875 -5 53 C-6.32 51.35 -7.64 49.7 -9 48 C-9.99 44.535 -9.99 44.535 -11 41 C-11.375 33.25 -11.375 33.25 -11 25 C-9.13520565 18.28674034 -6.33522978 12.61412311 -3.3125 6.3125 C-1.6728125 3.1878125 -1.6728125 3.1878125 0 0 Z " transform="translate(256,236)" style="fill: #F7FAFB;"/><path d="M0 0 C4.52031007 1.50677002 9.04839931 3.02045041 13.4375 4.875 C21.17568474 7.83116046 28.96861284 9.97849439 37 12 C41.32420462 12.43605425 45.65824791 12.80486507 50 13 C50.99 13.33 51.98 13.66 53 14 C53.84025628 20.61739202 54.5128923 27.16971065 55.0625 33.8125 C55.382908 37.5068429 55.70703538 41.20086539 56.03515625 44.89453125 C56.18525146 46.64467529 56.33534668 48.39481934 56.48999023 50.19799805 C56.96907725 55.40579552 56.96907725 55.40579552 58.4140625 62.0703125 C58.60742188 63.69710937 58.80078125 65.32390625 59 67 C57.453125 68.340625 55.90625 69.68125 54.3125 71.0625 C48 74 48 74 42.375 75.9375 C40.60125 76.288125 38.8275 76.63875 37 77 C34.03 77 31.06 77 28 77 C23.625 73.1875 23.625 73.1875 20 69 C19.01 68.01 18.02 67.02 17 66 C19.59875 65.7834375 19.59875 65.7834375 22.25 65.5625 C24.4775 65.376875 26.705 65.19125 29 65 C31.97 63.68 34.94 62.36 38 61 C40.31 59.02 42.62 57.04 45 55 C46.32 52.36 47.64 49.72 49 47 C49.33 45.68 49.66 44.36 50 43 C50 40.36 50 37.72 50 35 C49.01 33.02 48.02 31.04 47 29 C42.41344687 26.82254548 37.72697241 24.85297318 33 23 C27.61791502 20.78143062 22.28065301 18.45022299 17 16 C10.875 11.9375 10.875 11.9375 6 8 C4.02 6.02 2.04 4.04 0 2 C0 1.34 0 0.68 0 0 Z " transform="translate(227,301)" style="fill: #F7F6F9;"/><path d="M0 0 C5.1875 -0.4375 5.1875 -0.4375 12 0 C18.875 2.0625 18.875 2.0625 25 5 C26.98 7.31 28.96 9.62 31 12 C32.32 13.32 33.64 14.64 35 16 C35.495 17.485 35.495 17.485 36 19 C36.16939423 23.99712974 36.16384638 29.00268528 36 34 C35.01 35.65 34.02 37.3 33 39 C31.68 40.32 30.36 41.64 29 43 C26.339375 43.928125 26.339375 43.928125 23.625 44.875 C21.76875 44.58625 19.9125 44.2975 18 44 C14.875 36.0625 14.875 36.0625 13.52734375 31.078125 C11.93988558 25.21631805 11.93988558 25.21631805 7.4375 17.3125 C3.08481671 9.9343657 3.08481671 9.9343657 -2 3 C-1.34 2.67 -0.68 2.34 0 2 C0 1.34 0 0.68 0 0 Z " transform="translate(342,140)" style="fill: #F98581;"/><path d="M0 0 C0.33 0 0.66 0 1 0 C1.495 2.475 1.495 2.475 2 5 C3.32 6.32 4.64 7.64 6 9 C6.495 9.99 6.495 9.99 7 11 C7 13.97 7 16.94 7 20 C4.625 25.4375 4.625 25.4375 2 30 C1.34 30.66 0.68 31.32 0 32 C-8.02984794 32.47600268 -16.08272726 32.32390424 -24.125 32.3125 C-26.40535156 32.32861328 -28.68570312 32.34472656 -31.03515625 32.36132812 C-33.19175781 32.36197266 -35.34835937 32.36261719 -37.5703125 32.36328125 C-39.56852051 32.36626221 -41.56672852 32.36924316 -43.62548828 32.37231445 C-45.06907715 32.24945068 -46.51266602 32.12658691 -48 32 C-48 31.01 -48 30.02 -48 29 C-45.03 28.34 -42.06 27.68 -39 27 C-37.35 25.35 -35.7 23.7 -34 22 C-33.67 20.35 -33.34 18.7 -33 17 C-27.66741699 16.89087081 -22.33002269 16.98948779 -17 17.1875 C-8.40332129 17.32475134 -8.40332129 17.32475134 -1 16 C-0.195625 13.339375 0.60875 10.67875 1.4375 7.9375 C0.963125 5.318125 0.48875 2.69875 0 0 Z " transform="translate(360,362)" style="fill: #4E8199;"/><path d="M0 0 C0.66 0 1.32 0 2 0 C1.125 5.3125 1.125 5.3125 -1 12 C-4.59341091 17.60328481 -8.45494948 22.40303991 -12.9375 27.3125 C-17.07138058 31.06479161 -21.26671143 34.05026944 -26 37 C-31 40 -31 40 -37 43 C-37.99 43 -38.98 43 -40 43 C-40 40.36 -40 37.72 -40 35 C-38.02 34.34 -36.04 33.68 -34 33 C-34 32.34 -34 31.68 -34 31 C-30.71867795 29.23313428 -27.38134699 27.56696568 -24 26 C-23.34 26 -22.68 26 -22 26 C-22 25.34 -22 24.68 -22 24 C-20.02 22.68 -18.04 21.36 -16 20 C-14.35 18.68 -12.7 17.36 -11 16 C-7.92177979 12.05987813 -4.91818024 8.06007686 -2 4 C-1.34 2.68 -0.68 1.36 0 0 Z " transform="translate(402,174)" style="fill: #49778F;"/><path d="M0 0 C1.753125 0.28875 3.50625 0.5775 5.3125 0.875 C6.3025 2.525 7.2925 4.175 8.3125 5.875 C7.9825 8.185 7.6525 10.495 7.3125 12.875 C6.3225 13.865 5.3325 14.855 4.3125 15.875 C-1.5 16.3125 -1.5 16.3125 -7.6875 15.875 C-9.6675 14.555 -11.6475 13.235 -13.6875 11.875 C-14.0175 9.565 -14.3475 7.255 -14.6875 4.875 C-13.6975 3.555 -12.7075 2.235 -11.6875 0.875 C-5.6875 -0.125 -5.6875 -0.125 0 0 Z " transform="translate(215.6875,235.125)" style="fill: #B39FB3;"/><path d="M0 0 C0.495 1.98 0.495 1.98 1 4 C-2 12 -2 12 -6 20 C-8.97 23.465 -8.97 23.465 -12 27 C-12.66 27.33 -13.32 27.66 -14 28 C-13.34 28.66 -12.68 29.32 -12 30 C-14.97 30 -17.94 30 -21 30 C-25.375 26.1875 -25.375 26.1875 -29 22 C-29.99 21.01 -30.98 20.02 -32 19 C-30.2675 18.855625 -28.535 18.71125 -26.75 18.5625 C-24.5225 18.376875 -22.295 18.19125 -20 18 C-17.03 16.68 -14.06 15.36 -11 14 C-8.69 12.02 -6.38 10.04 -4 8 C-2.68 5.36 -1.36 2.72 0 0 Z " transform="translate(276,348)" style="fill: #B6B5C3;"/><path d="M0 0 C1.32 0.66 2.64 1.32 4 2 C4.33 2.99 4.66 3.98 5 5 C5 8.3 5 11.6 5 15 C4.67 15.99 4.34 16.98 4 18 C3.01 18.66 2.02 19.32 1 20 C1 20.66 1 21.32 1 22 C1.99 22.66 2.98 23.32 4 24 C3.67 25.65 3.34 27.3 3 29 C1.68 29.99 0.36 30.98 -1 32 C-0.67 34.31 -0.34 36.62 0 39 C-1.711875 39.020625 -3.42375 39.04125 -5.1875 39.0625 C-8.0646875 38.5365625 -8.0646875 38.5365625 -11 38 C-12.32 37.34 -13.64 36.68 -15 36 C-15 34.35 -15 32.7 -15 31 C-13.68 30.67 -12.36 30.34 -11 30 C-11 28.02 -11 26.04 -11 24 C-7.3815334 21.91406043 -3.71092536 19.91663178 0 18 C0.99 16.35 1.98 14.7 3 13 C3 10.69 3 8.38 3 6 C2.01 4.02 1.02 2.04 0 0 Z " transform="translate(347,319)" style="fill: #CDF9FB;"/><path d="M0 0 C2.31 0 4.62 0 7 0 C7.99 0.99 8.98 1.98 10 3 C10 4.98 10 6.96 10 9 C8.02 9.99 6.04 10.98 4 12 C0.7 12 -2.6 12 -6 12 C-7.32 10.35 -8.64 8.7 -10 7 C-9.67 5.35 -9.34 3.7 -9 2 C-6.03 1.34 -3.06 0.68 0 0 Z " transform="translate(326,238)" style="fill: #E791A8;"/><path d="M0 0 C8.5625 -0.4375 8.5625 -0.4375 17 0 C18.98 1.32 20.96 2.64 23 4 C23.495 6.475 23.495 6.475 24 9 C23.01 7.68 22.02 6.36 21 5 C19.68 4.34 18.36 3.68 17 3 C11.79352371 2.41483298 11.79352371 2.41483298 6 3 C0.17699643 5.04056102 0.17699643 5.04056102 -5 8 C-6.98 9.65 -8.96 11.3 -11 13 C-11.99 14.485 -11.99 14.485 -13 16 C-13.66 16 -14.32 16 -15 16 C-15.41726389 22.74949989 -15.41726389 22.74949989 -15 30 C-14.01 31.98 -13.02 33.96 -12 36 C-11.34 36.66 -10.68 37.32 -10 38 C-11.32 37.67 -12.64 37.34 -14 37 C-15.32 34.69 -16.64 32.38 -18 30 C-18 27.03 -18 24.06 -18 21 C-16.8125 15.75 -16.8125 15.75 -15 11 C-12.33333333 8.33333333 -9.66666667 5.66666667 -7 3 C-4.69 2.01 -2.38 1.02 0 0 Z " transform="translate(154,139)" style="fill: #AD9EA6;"/><path d="M0 0 C2.64 0 5.28 0 8 0 C9.32 1.32 10.64 2.64 12 4 C11.67 5.98 11.34 7.96 11 10 C9.02 10.99 9.02 10.99 7 12 C3.7 12 0.4 12 -3 12 C-3.99 11.34 -4.98 10.68 -6 10 C-5.67 8.02 -5.34 6.04 -5 4 C-3.35 2.68 -1.7 1.36 0 0 Z " transform="translate(286,257)" style="fill: #F3F2F6;"/><path d="M0 0 C1.32 0 2.64 0 4 0 C5.65 1.65 7.3 3.3 9 5 C11.97 5 14.94 5 18 5 C19.65 4.34 21.3 3.68 23 3 C23.33 2.01 23.66 1.02 24 0 C24.99 0 25.98 0 27 0 C26.67 1.98 26.34 3.96 26 6 C25.34 6 24.68 6 24 6 C24 6.66 24 7.32 24 8 C20.535 9.485 20.535 9.485 17 11 C14.03 10.67 11.06 10.34 8 10 C5.36 8.02 2.72 6.04 0 4 C0 2.68 0 1.36 0 0 Z " transform="translate(217,221)" style="fill: #352052;"/><path d="M0 0 C2.97 0.495 2.97 0.495 6 1 C6.99 1.66 7.98 2.32 9 3 C9 4.65 9 6.3 9 8 C8.01 8.66 7.02 9.32 6 10 C1.545 10.495 1.545 10.495 -3 11 C-4.32 9.68 -5.64 8.36 -7 7 C-6.67 5.35 -6.34 3.7 -6 2 C-4.02 1.34 -2.04 0.68 0 0 Z " transform="translate(212,238)" style="fill: #FA8FA3;"/><path d="M0 0 C6.22265625 -0.53125 6.22265625 -0.53125 14.0625 -0.5 C16.65222656 -0.5103125 19.24195313 -0.520625 21.91015625 -0.53125 C24.92462891 -0.26828125 24.92462891 -0.26828125 28 0 C28 1.32 28 2.64 28 4 C21.62109375 4.53125 21.62109375 4.53125 13.4375 4.5 C9.38275391 4.51546875 9.38275391 4.51546875 5.24609375 4.53125 C3.18488281 4.3559375 1.12367188 4.180625 -1 4 C-0.67 2.68 -0.34 1.36 0 0 Z " transform="translate(307,200)" style="fill: #24124C;"/><path d="M0 0 C5.96875 -0.53125 5.96875 -0.53125 13.5 -0.5 C15.9853125 -0.5103125 18.470625 -0.520625 21.03125 -0.53125 C23.98578125 -0.26828125 23.98578125 -0.26828125 27 0 C27.33 1.32 27.66 2.64 28 4 C21.71875 4.53125 21.71875 4.53125 13.5 4.5 C10.7878125 4.5103125 8.075625 4.520625 5.28125 4.53125 C3.2084375 4.3559375 1.135625 4.180625 -1 4 C-0.67 2.68 -0.34 1.36 0 0 Z " transform="translate(218,200)" style="fill: #27144C;"/><path d="M0 0 C3.3 0 6.6 0 10 0 C16.5625 1.3125 16.5625 1.3125 22 3 C22.33 3.99 22.66 4.98 23 6 C24.98 6.66 26.96 7.32 29 8 C30.32 9.32 31.64 10.64 33 12 C32.67 13.32 32.34 14.64 32 16 C30.02 14.02 28.04 12.04 26 10 C26 9.34 26 8.68 26 8 C23.525 7.505 23.525 7.505 21 7 C18.36 6.01 15.72 5.02 13 4 C6.68101375 3.11093306 6.68101375 3.11093306 1 3 C1 3.66 1 4.32 1 5 C-0.32 4.67 -1.64 4.34 -3 4 C-3.33 3.34 -3.66 2.68 -4 2 C-2.68 1.34 -1.36 0.68 0 0 Z " transform="translate(341,137)" style="fill: #AE99A7;"/><path d="M0 0 C0.99 0.99 1.98 1.98 3 3 C3.33 3.99 3.66 4.98 4 6 C4.16939423 10.99712974 4.16384638 16.00268528 4 21 C3.01 22.65 2.02 24.3 1 26 C-0.32 27.32 -1.64 28.64 -3 30 C-4.85625 30.4125 -6.7125 30.825 -8.625 31.25 C-10.39875 31.1675 -12.1725 31.085 -14 31 C-14.66 28.36 -15.32 25.72 -16 23 C-15.01 23.33 -14.02 23.66 -13 24 C-13 25.32 -13 26.64 -13 28 C-7.44176959 27.65616337 -7.44176959 27.65616337 -2 26 C-2 24.68 -2 23.36 -2 22 C-1.01 22 -0.02 22 1 22 C2.18856181 14.85857864 2.18856181 14.85857864 2 7 C1.34 5.68 0.68 4.36 0 3 C0 2.01 0 1.02 0 0 Z " transform="translate(374,153)" style="fill: #BC959D;"/><path d="M0 0 C2.97 0 5.94 0 9 0 C10.98 0.99 12.96 1.98 15 3 C15 4.65 15 6.3 15 8 C9.75 7.9375 9.75 7.9375 4 7 C2.68 6.34 1.36 5.68 0 5 C0 3.35 0 1.7 0 0 Z " transform="translate(332,350)" style="fill: #1DB3C5;"/><path d="M0 0 C2.64 0 5.28 0 8 0 C8.33 1.65 8.66 3.3 9 5 C8.67 5.33 8.34 5.66 8 6 C2.4375 6.3125 2.4375 6.3125 -3 6 C-3 4.68 -3 3.36 -3 2 C-2.01 1.34 -1.02 0.68 0 0 Z " transform="translate(342,342)" style="fill: #23B4CA;"/><path d="M0 0 C2.31 0 4.62 0 7 0 C6.67 1.65 6.34 3.3 6 5 C4.02 5.99 4.02 5.99 2 7 C-0.31 7 -2.62 7 -5 7 C-4.67 5.68 -4.34 4.36 -4 3 C-2.68 2.01 -1.36 1.02 0 0 Z " transform="translate(317,356)" style="fill: #19ACC0;"/><path d="M0 0 C1.65 0.99 3.3 1.98 5 3 C6.464375 4.485 7.92875 5.97 9.4375 7.5 C10.943125 8.985 12.44875 10.47 14 12 C15.98 12.99 17.96 13.98 20 15 C20 15.33 20 15.66 20 16 C18.02 16 16.04 16 14 16 C12.02 14.68 10.04 13.36 8 12 C6.68 10.02 5.36 8.04 4 6 C2.68 4.68 1.36 3.36 0 2 C0 1.34 0 0.68 0 0 Z " transform="translate(198,343)" style="fill: #507288;"/><path d="M0 0 C0.66 0.33 1.32 0.66 2 1 C1.67 1.33 1.34 1.66 1 2 C1.99 2.66 2.98 3.32 4 4 C1.03 4.66 -1.94 5.32 -5 6 C-5.99 6.66 -6.98 7.32 -8 8 C-8 6.68 -8 5.36 -8 4 C-8.99 4 -9.98 4 -11 4 C-10.67 3.34 -10.34 2.68 -10 2 C-6.535 1.505 -6.535 1.505 -3 1 C-2.01 0.67 -1.02 0.34 0 0 Z " transform="translate(320,352)" style="fill: #BDF4F8;"/><path d="M0 0 C0.33 0 0.66 0 1 0 C1.66 2.64 2.32 5.28 3 8 C5.31 9.65 7.62 11.3 10 13 C10 13.33 10 13.66 10 14 C8.02 14 6.04 14 4 14 C4 13.01 4 12.02 4 11 C3.01 10.67 2.02 10.34 1 10 C0.67 9.01 0.34 8.02 0 7 C0 4.69 0 2.38 0 0 Z " transform="translate(308,333)" style="fill: #B1F5F6;"/><path d="M0 0 C2.31 0.33 4.62 0.66 7 1 C7 1.33 7 1.66 7 2 C4.69 2.66 2.38 3.32 0 4 C-0.99 4.99 -1.98 5.98 -3 7 C-3.66 6.67 -4.32 6.34 -5 6 C-5 5.01 -5 4.02 -5 3 C-3.35 2.01 -1.7 1.02 0 0 Z " transform="translate(341,340)" style="fill: #9AE7EB;"/></svg>